
<svg
  version="1.0"
  xmlns="http://www.w3.org/2000/svg"
  xmlns:xlink="http://www.w3.org/1999/xlink"
  width="2400"
  height="1800"
>
  
  <rect
    x="0"
    y="0"
    width="100%"
    height="100%"
    fill="#333333"
    fill-opacity="1"
  ></rect>
  <svg
    version="1.0"
    xmlns="http://www.w3.org/2000/svg"
    xmlns:xlink="http://www.w3.org/1999/xlink"
    x="0"
    y="0"
    width="2400"
    height="1800"
    viewBox="0 0 340.000000 250.000000"
    preserveAspectRatio="xMidYMid meet"
    color-interpolation-filters="sRGB"
  >
    <defs><linearGradient id="92" x1="0%" y1="0%" x2="100%" y2="0%"><stop offset="0%" stop-color="#fa71cd"/> <stop offset="100%" stop-color="#9b59b6"/></linearGradient><linearGradient id="93" x1="0%" y1="0%" x2="100%" y2="0%"><stop offset="0%" stop-color="#f9d423"/> <stop offset="100%" stop-color="#f83600"/></linearGradient><linearGradient id="94" x1="0%" y1="0%" x2="100%" y2="0%"><stop offset="0%" stop-color="#0064d2"/> <stop offset="100%" stop-color="#1cb0f6"/></linearGradient><linearGradient id="95" x1="0%" y1="0%" x2="100%" y2="0%"><stop offset="0%" stop-color="#f00978"/> <stop offset="100%" stop-color="#3f51b1"/></linearGradient><linearGradient id="96" x1="0%" y1="0%" x2="100%" y2="0%"><stop offset="0%" stop-color="#7873f5"/> <stop offset="100%" stop-color="#ec77ab"/></linearGradient><linearGradient id="97" x1="0%" y1="0%" x2="100%" y2="0%"><stop offset="0%" stop-color="#f9d423"/> <stop offset="100%" stop-color="#e14fad"/></linearGradient><linearGradient id="98" x1="0%" y1="0%" x2="100%" y2="0%"><stop offset="0%" stop-color="#009efd"/> <stop offset="100%" stop-color="#2af598"/></linearGradient><linearGradient id="99" x1="0%" y1="0%" x2="100%" y2="0%"><stop offset="0%" stop-color="#ffcc00"/> <stop offset="100%" stop-color="#00b140"/></linearGradient><linearGradient id="100" x1="0%" y1="0%" x2="100%" y2="0%"><stop offset="0%" stop-color="#d51007"/> <stop offset="100%" stop-color="#ff8177"/></linearGradient><linearGradient id="102" x1="0%" y1="0%" x2="100%" y2="0%"><stop offset="0%" stop-color="#a2b6df"/> <stop offset="100%" stop-color="#0c3483"/></linearGradient><linearGradient id="103" x1="0%" y1="0%" x2="100%" y2="0%"><stop offset="0%" stop-color="#7ac5d8"/> <stop offset="100%" stop-color="#eea2a2"/></linearGradient><linearGradient id="104" x1="0%" y1="0%" x2="100%" y2="0%"><stop offset="0%" stop-color="#00ecbc"/> <stop offset="100%" stop-color="#007adf"/></linearGradient><linearGradient id="105" x1="0%" y1="0%" x2="100%" y2="0%"><stop offset="0%" stop-color="#b88746"/> <stop offset="100%" stop-color="#fdf5a6"/></linearGradient></defs> <g fill="#feffff" class="iconlinesvg-g iconlinesvg" transform="translate(85.71179962158203,104.79839706420898)"><g class="tp-name"><g transform="translate(0, 0)"><g><g class="imagesvg"><g><rect fill="#feffff" fill-opacity="0" stroke-width="2" x="0" y="0" width="42.37326570112522" height="40.40320540555058" class="image-rect"/> <svg x="0" y="0" width="42.37326570112522" height="40.40320540555058" filtersec="colorsb2672370849" class="image-svg-svg primary" style="overflow: visible;"><svg xmlns="http://www.w3.org/2000/svg" viewBox="0.0332639217376709 -0.0006865561008453369 103.98780822753906 99.15327453613281"><path d="M48.37.12c6.47.34 14.26-.75 21.94.49 24.42 4 39 27.54 31.92 51.34-6.12 20.5-23.94 33.75-45.38 33.77-3.57 0-7.14-.06-10.7 0-3.73.11-5.86 1.64-6.36 5.33-1.28 9.36-2.71 8-10.33 8.07H12.64c-4.73 0-6-1.56-5.2-6.26 1.84-10.84 3.64-21.68 5.6-32.5.41-2.26-.18-3.37-2.29-4.15-3.67-1.35-7.11-3.13-9.24-6.65a8.45 8.45 0 0 1-1.42-5.75c.22-1.28.84-2.28 2.25-1.13 8.21 6.72 18.25 7.52 28.15 8.79a112.75 112.75 0 0 0 12.19.68c4.82.09 6.21 1.94 5.25 6.61-.28 1.39-.63 2.78-.82 4.19C47 64 47 65.05 48 65.7a2.64 2.64 0 0 0 3.14-.27q5.38-3.75 10.75-7.56 8.54-6.1 17.11-12.24c2.74-2 3.19-4.31.84-6.66-6.77-6.78-13.66-13.42-20.59-20-1.89-1.79-3.88-1.1-4.56 1.51S53.54 26 53 28.84c-.59 3.08-2.25 5.24-5.39 6a155.25 155.25 0 0 1-26.88 3.8c-3.88.19-4.16-.24-3.58-3.89Q19.55 19.63 22 4.57C22.59.89 23.47.13 27.23.12c6.63-.02 13.25 0 21.14 0z" fill="#324681"/></svg></svg> </g></g></g></g><g transform="translate(45, 3.0100366843515403)"><g fill="#feffff" transform="scale(1)"><path d="M13.06-23.63Q17.88-23.63 20.21-21.25Q22.54-18.87 22.54-14.01L22.54-14.01L22.54-2.50Q22.54-1.23 21.79-0.50Q21.04 0.24 19.71 0.24L19.71 0.24Q18.49 0.24 17.71-0.52Q16.93-1.27 16.93-2.50L16.93-2.50L16.93-3.54Q16.13-1.70 14.41-0.66Q12.69 0.38 10.42 0.38L10.42 0.38Q8.11 0.38 6.23-0.57Q4.34-1.51 3.25-3.16Q2.17-4.81 2.17-6.84L2.17-6.84Q2.17-9.39 3.47-10.85Q4.76-12.31 7.69-12.97Q10.61-13.63 15.75-13.63L15.75-13.63L16.93-13.63L16.93-14.72Q16.93-17.03 15.94-18.09Q14.95-19.15 12.73-19.15L12.73-19.15Q11.37-19.15 9.95-18.75Q8.54-18.35 6.60-17.59L6.60-17.59Q5.38-16.98 4.81-16.98L4.81-16.98Q3.96-16.98 3.42-17.59Q2.88-18.21 2.88-19.20L2.88-19.20Q2.88-20.00 3.28-20.59Q3.68-21.18 4.62-21.70L4.62-21.70Q6.27-22.59 8.56-23.11Q10.85-23.63 13.06-23.63L13.06-23.63ZM11.60-3.87Q13.96-3.87 15.45-5.45Q16.93-7.03 16.93-9.53L16.93-9.53L16.93-10.52L16.08-10.52Q12.92-10.52 11.18-10.23Q9.43-9.95 8.68-9.24Q7.92-8.54 7.92-7.31L7.92-7.31Q7.92-5.80 8.98-4.83Q10.05-3.87 11.60-3.87L11.60-3.87Z" transform="translate(-2.1695803480040943, 34.00581371545548)"/></g></g><g transform="translate(69, 3.0100366843515403)"><g fill="#feffff" transform="scale(1)"><path d="M15.94-23.54Q17.17-23.63 17.88-23.02Q18.58-22.40 18.58-21.18L18.58-21.18Q18.58-19.90 17.97-19.29Q17.36-18.68 15.75-18.49L15.75-18.49L14.34-18.35Q11.56-18.06 10.26-16.46Q8.96-14.86 8.96-12.45L8.96-12.45L8.96-2.55Q8.96-1.18 8.11-0.45Q7.26 0.28 5.99 0.28L5.99 0.28Q4.72 0.28 3.89-0.45Q3.07-1.18 3.07-2.55L3.07-2.55L3.07-20.80Q3.07-22.12 3.89-22.83Q4.72-23.54 5.94-23.54L5.94-23.54Q7.17-23.54 7.92-22.85Q8.68-22.17 8.68-20.89L8.68-20.89L8.68-19.01Q9.57-21.08 11.34-22.21Q13.11-23.35 15.28-23.49L15.28-23.49L15.94-23.54Z" transform="translate(-3.0657113613101337, 34.00581371545548)"/></g></g><g transform="translate(88, 3.0100366843515403)"><g fill="#feffff" transform="scale(1)"><path d="M13.06-23.63Q17.88-23.63 20.21-21.25Q22.54-18.87 22.54-14.01L22.54-14.01L22.54-2.50Q22.54-1.23 21.79-0.50Q21.04 0.24 19.71 0.24L19.71 0.24Q18.49 0.24 17.71-0.52Q16.93-1.27 16.93-2.50L16.93-2.50L16.93-3.54Q16.13-1.70 14.41-0.66Q12.69 0.38 10.42 0.38L10.42 0.38Q8.11 0.38 6.23-0.57Q4.34-1.51 3.25-3.16Q2.17-4.81 2.17-6.84L2.17-6.84Q2.17-9.39 3.47-10.85Q4.76-12.31 7.69-12.97Q10.61-13.63 15.75-13.63L15.75-13.63L16.93-13.63L16.93-14.72Q16.93-17.03 15.94-18.09Q14.95-19.15 12.73-19.15L12.73-19.15Q11.37-19.15 9.95-18.75Q8.54-18.35 6.60-17.59L6.60-17.59Q5.38-16.98 4.81-16.98L4.81-16.98Q3.96-16.98 3.42-17.59Q2.88-18.21 2.88-19.20L2.88-19.20Q2.88-20.00 3.28-20.59Q3.68-21.18 4.62-21.70L4.62-21.70Q6.27-22.59 8.56-23.11Q10.85-23.63 13.06-23.63L13.06-23.63ZM11.60-3.87Q13.96-3.87 15.45-5.45Q16.93-7.03 16.93-9.53L16.93-9.53L16.93-10.52L16.08-10.52Q12.92-10.52 11.18-10.23Q9.43-9.95 8.68-9.24Q7.92-8.54 7.92-7.31L7.92-7.31Q7.92-5.80 8.98-4.83Q10.05-3.87 11.60-3.87L11.60-3.87Z" transform="translate(-2.1695803480040943, 34.00581371545548)"/></g></g><g transform="translate(112, 3.0100366843515403)"><g fill="#feffff" transform="scale(1)"><path d="M19.15-21.84Q19.53-22.69 20.16-23.11Q20.80-23.54 21.55-23.54L21.55-23.54Q22.64-23.54 23.51-22.80Q24.38-22.07 24.38-20.99L24.38-20.99Q24.38-20.42 24.10-19.86L24.10-19.86L15.38-1.60Q14.95-0.71 14.17-0.24Q13.39 0.24 12.45 0.24L12.45 0.24Q11.56 0.24 10.73-0.24Q9.90-0.71 9.48-1.60L9.48-1.60L0.71-19.86Q0.47-20.33 0.47-20.94L0.47-20.94Q0.47-22.03 1.39-22.78Q2.31-23.54 3.49-23.54L3.49-23.54Q5.19-23.54 5.99-21.88L5.99-21.88L12.59-7.31L19.15-21.84Z" transform="translate(-0.4716479017400205, 34.00581371545548)"/></g></g><g transform="translate(139, 3.0100366843515403)"><g fill="#feffff" transform="scale(1)"><path d="M5.99 0.28Q4.72 0.28 3.89-0.45Q3.07-1.18 3.07-2.55L3.07-2.55L3.07-20.75Q3.07-22.12 3.89-22.83Q4.72-23.54 5.99-23.54L5.99-23.54Q7.26-23.54 8.11-22.83Q8.96-22.12 8.96-20.75L8.96-20.75L8.96-2.55Q8.96-1.18 8.11-0.45Q7.26 0.28 5.99 0.28L5.99 0.28ZM5.99-27.73Q4.39-27.73 3.44-28.61Q2.50-29.48 2.50-30.89L2.50-30.89Q2.50-32.31 3.44-33.16Q4.39-34.01 5.99-34.01L5.99-34.01Q7.55-34.01 8.51-33.16Q9.48-32.31 9.48-30.89L9.48-30.89Q9.48-29.48 8.54-28.61Q7.59-27.73 5.99-27.73L5.99-27.73Z" transform="translate(-2.499733879222109, 34.00581371545548)"/></g></g><g transform="translate(149, 3.0100366843515403)"><g fill="#feffff" transform="scale(1)"><path d="M11.41 0.38Q6.27 0.38 3.11-1.65L3.11-1.65Q1.60-2.55 1.60-4.20L1.60-4.20Q1.60-5.14 2.12-5.73Q2.64-6.32 3.40-6.32L3.40-6.32Q4.20-6.32 5.61-5.57L5.61-5.57Q7.12-4.86 8.37-4.48Q9.62-4.10 11.56-4.10L11.56-4.10Q13.54-4.10 14.64-4.76Q15.75-5.42 15.75-6.60L15.75-6.60Q15.75-7.40 15.30-7.88Q14.86-8.35 13.70-8.75Q12.55-9.15 10.19-9.67L10.19-9.67Q5.99-10.52 4.17-12.07Q2.36-13.63 2.36-16.37L2.36-16.37Q2.36-18.44 3.58-20.12Q4.81-21.79 6.96-22.71Q9.10-23.63 11.84-23.63L11.84-23.63Q13.82-23.63 15.66-23.13Q17.50-22.64 18.96-21.70L18.96-21.70Q20.47-20.75 20.47-19.20L20.47-19.20Q20.47-18.25 19.95-17.62Q19.43-16.98 18.68-16.98L18.68-16.98Q18.16-16.98 17.66-17.19Q17.17-17.40 16.41-17.83L16.41-17.83Q15.05-18.54 14.06-18.89Q13.06-19.24 11.60-19.24L11.60-19.24Q9.86-19.24 8.84-18.54Q7.83-17.83 7.83-16.60L7.83-16.60Q7.83-15.42 8.87-14.81Q9.90-14.20 12.88-13.58L12.88-13.58Q16.04-12.92 17.83-12.07Q19.62-11.23 20.40-9.95Q21.18-8.68 21.18-6.70L21.18-6.70Q21.18-3.49 18.51-1.56Q15.85 0.38 11.41 0.38L11.41 0.38Z" transform="translate(-1.60360286591607, 34.00581371545548)"/></g></g></g> </g><defs v-gra="od"/>
  </svg>
</svg>


